<svg xmlns="http://www.w3.org/2000/svg" xmlns:xlink="http://www.w3.org/1999/xlink" width="451.504" height="403.307" viewBox="74 0 376 121">
  <defs>
    <linearGradient id="linear-gradient" x1="0.5" x2="0.5" y2="1" gradientUnits="objectBoundingBox">
      <stop offset="0" stop-color="#6c18a4"/>
      <stop offset="1" stop-color="#3827b4"/>
    </linearGradient>
    <linearGradient id="linear-gradient-2" x1="0.5" x2="0.5" y2="1" gradientUnits="objectBoundingBox">
      <stop offset="0" stop-color="#6c18a4"/>
      <stop offset="1" stop-color="#6c18a4"/>
    </linearGradient>
    <linearGradient id="linear-gradient-4" y1="0.148" x2="1" y2="0.14" gradientUnits="objectBoundingBox">
      <stop offset="0" stop-color="#3827b4"/>
      <stop offset="1" stop-color="#6c18a4"/>
    </linearGradient>
  </defs>
  <g id="Background" transform="translate(75.535 -409.755)">
    <path id="Контур_5" data-name="Контур 5" d="M609,447.47s-103.853-50.361-217.56-30.729-158.375-41.986-158.375-41.986V777.523H609Z" transform="translate(-234 35)" opacity="0.2" fill="url(#linear-gradient)"/>
    <path id="Контур_4" data-name="Контур 4" d="M609,387.47s-60.072-12.841-157.56,29.271-218.375-21.986-218.375-21.986V757.523H609Z" transform="translate(-234 55)" opacity="0.4" fill="url(#linear-gradient-2)"/>
    <path id="Контур_1" data-name="Контур 1" d="M158.465,404.416s65.937-46.684,198.506-8.808,252,24.4,252,24.4l1,336.054H234Z" transform="translate(-234 57)" opacity="0.7" fill="url(#linear-gradient-2)"/>
    <path id="Контур_2" data-name="Контур 2" d="M214,428.849s58.257-43.116,190.485-5.179S589,460.043,589,460.043L588,786.67H213Z" transform="translate(-214 26.392)" opacity="0.7" fill="url(#linear-gradient-4)"/>
  </g>
</svg>
