<svg xmlns="http://www.w3.org/2000/svg" xmlns:xlink="http://www.w3.org/1999/xlink" width="453.535" height="403.307" viewBox="3 229 375 403.307">
  <defs>
    <linearGradient id="linear-gradient" x1="0.5" x2="0.5" y2="1" gradientUnits="objectBoundingBox">
      <stop offset="0" stop-color="#6c18a4"/>
      <stop offset="1" stop-color="#3827b4"/>
    </linearGradient>
    <linearGradient id="linear-gradient-3" x1="1" y1="0.381" x2="0" y2="0.381" gradientUnits="objectBoundingBox">
      <stop offset="0" stop-color="#3827b4"/>
      <stop offset="1" stop-color="#6c18a4"/>
    </linearGradient>
    <linearGradient id="linear-gradient-4" x1="1" y1="0.423" x2="0.176" y2="0.423" xlink:href="#linear-gradient-3"/>
  </defs>
  <g id="Background" transform="translate(378 813.062) rotate(180)">
    <path id="Контур_5" data-name="Контур 5" d="M609,447.47s-103.853-50.361-217.56-30.729-158.375-41.986-158.375-41.986V777.523H609Z" transform="translate(-234 35)" opacity="0.2" fill="url(#linear-gradient)"/>
    <path id="Контур_4" data-name="Контур 4" d="M612,387.47s-63.072-12.841-160.56,29.271-218.375-21.986-218.375-21.986V757.523H609Z" transform="translate(-234 55)" opacity="0.4" fill="url(#linear-gradient)"/>
    <path id="Контур_2" data-name="Контур 2" d="M214,428.849s58.257-43.116,190.485-5.179S591,460.043,591,460.043L590,786.67H213Z" transform="translate(-214 26.392)" opacity="0.7" fill="url(#linear-gradient-3)"/>
    <path id="Контур_1" data-name="Контур 1" d="M158.465,404.416s65.937-46.684,198.506-8.808,254,24.4,254,24.4l-1,336.054H234Z" transform="translate(-234 57)" opacity="0.7" fill="url(#linear-gradient-4)"/>
  </g>
</svg>
